<svg width="802" height="8" viewBox="0 0 802 8" fill="none" xmlns="http://www.w3.org/2000/svg">
<path d="M801 1.34286C796.255 1.8 793.054 2.71429 789.682 3.68571C784.594 5.11429 778.764 6.71429 767.731 6.71429C756.699 6.71429 750.925 5.11429 745.78 3.68571C740.921 2.31429 736.291 1 726.974 1C717.656 1 713.026 2.31429 708.167 3.68571C703.079 5.11429 697.249 6.71429 686.216 6.71429C675.184 6.71429 669.41 5.11429 664.265 3.68571C659.407 2.31429 654.776 1 645.402 1C636.027 1 631.454 2.31429 626.595 3.68571C621.507 5.11429 615.677 6.71429 604.644 6.71429C593.612 6.71429 587.838 5.11429 582.693 3.68571C577.835 2.31429 573.204 1 563.887 1C554.512 1 549.939 2.31429 545.023 3.68571C539.935 5.11429 534.105 6.71429 523.072 6.71429C512.04 6.71429 506.266 5.11429 501.122 3.68571C496.263 2.31429 491.632 1 482.258 1C472.883 1 468.31 2.31429 463.394 3.68571C458.306 5.11429 452.476 6.71429 441.443 6.71429C430.411 6.71429 424.637 5.11429 419.492 3.68571C414.633 2.31429 410.003 1 400.628 1C391.254 1 386.681 2.31429 381.765 3.68571C376.677 5.11429 370.846 6.71429 359.814 6.71429C348.781 6.71429 343.008 5.11429 337.863 3.68571C333.004 2.31429 328.374 1 318.999 1C309.682 1 305.051 2.31429 300.135 3.68571C295.048 5.11429 289.217 6.71429 278.185 6.71429C267.152 6.71429 261.379 5.11429 256.234 3.68571C251.375 2.31429 246.745 1 237.37 1C227.995 1 223.422 2.31429 218.506 3.68571C213.419 5.11429 207.645 6.71429 196.556 6.71429C185.523 6.71429 179.75 5.11429 174.605 3.68571C170.203 2.31429 165.63 1 156.255 1C146.938 1 142.308 2.31429 137.449 3.68571C132.361 5.11429 126.531 6.71429 115.498 6.71429C104.466 6.71429 98.692 5.11429 93.5473 3.68571C88.6885 2.31429 84.0582 1 74.6835 1C65.3087 1 60.7928 2.31429 55.8767 3.68571C50.7892 5.11429 44.9586 6.71429 33.926 6.71429C22.8935 6.71429 17.12 5.11429 12.0325 3.68571C8.65988 2.71429 5.74455 1.74286 1 1.28571" stroke="#DEDFE0" stroke-miterlimit="10" stroke-linecap="square"/>
</svg>
