<svg width="172" height="26" viewBox="0 0 172 26" fill="none" xmlns="http://www.w3.org/2000/svg">
<path fill-rule="evenodd" clip-rule="evenodd" d="M94.8754 21.7407C93.293 21.7407 92.1234 21.3279 91.229 20.5711C90.3346 19.8144 89.9218 18.7136 89.9218 17.3376C89.9218 16.0304 90.197 14.9296 90.7474 13.8976C91.2978 12.8656 92.0546 12.1088 93.0178 11.5584C93.981 11.008 95.0818 10.7328 96.3202 10.7328C97.9026 10.7328 99.0722 11.1456 99.9666 11.9024C100.861 12.6592 101.274 13.76 101.274 15.2048C101.274 16.512 100.999 17.6128 100.448 18.6448C99.8978 19.6768 99.141 20.4336 98.1778 20.9839C97.2146 21.4655 96.1138 21.7407 94.8754 21.7407ZM94.6002 25.2495C96.733 25.2495 98.5906 24.7679 100.311 23.8735C102.031 22.9791 103.338 21.7407 104.232 20.1584C105.127 18.576 105.677 16.7872 105.677 14.8608C105.677 13.3472 105.333 11.9712 104.576 10.8016C103.819 9.63201 102.787 8.73762 101.411 8.04962C100.035 7.43042 98.453 7.08643 96.6642 7.08643C94.5314 7.08643 92.6738 7.49922 90.9538 8.39362C89.3026 9.28801 87.9266 10.5264 87.0322 12.1088C86.069 13.6912 85.6562 15.48 85.6562 17.4064C85.6562 18.9888 86.0002 20.296 86.757 21.4655C87.5138 22.6351 88.5458 23.5295 89.9218 24.2175C91.229 24.9055 92.8114 25.2495 94.6002 25.2495Z" fill="#002025"/>
<path fill-rule="evenodd" clip-rule="evenodd" d="M113.932 9.63206L114.413 7.29287H110.285L106.57 25.3872H110.905L112.762 16.4432C113.519 12.9344 115.652 11.0769 119.229 11.0769C119.573 11.0769 119.917 11.0769 120.33 11.1457L121.156 7.15527C119.505 7.15527 118.129 7.36167 116.959 7.70567C115.721 8.04967 114.757 8.73766 113.932 9.63206Z" fill="#002025"/>
<path fill-rule="evenodd" clip-rule="evenodd" d="M131.2 10.4577C132.507 10.4577 133.608 10.7329 134.434 11.4208C135.259 12.04 135.741 12.9344 135.947 14.0352L125.008 15.8928C125.283 14.2416 125.903 12.8656 127.003 11.9024C128.104 10.9393 129.48 10.4577 131.2 10.4577ZM131.338 7.15527C129.274 7.15527 127.416 7.56807 125.834 8.46247C124.183 9.35686 122.944 10.5953 122.05 12.1776C121.155 13.76 120.674 15.5488 120.674 17.4752C120.674 19.0576 121.018 20.4336 121.775 21.6032C122.531 22.7728 123.563 23.6672 124.939 24.2864C126.315 24.9056 127.967 25.2496 129.824 25.2496C131.269 25.2496 132.645 25.0432 134.021 24.6304C135.328 24.2176 136.498 23.5984 137.461 22.7728L135.672 19.8832C135.053 20.5024 134.227 20.9152 133.333 21.1904C132.37 21.5344 131.407 21.672 130.306 21.672C127.279 21.672 125.559 20.64 125.077 18.576L139.938 15.9616C139.938 15.7552 139.938 15.48 139.938 15.0672C139.938 12.4528 139.181 10.5265 137.599 9.15046C136.016 7.84327 133.952 7.15527 131.338 7.15527Z" fill="#002025"/>
<path fill-rule="evenodd" clip-rule="evenodd" d="M148.538 25.2494C151.222 25.2494 153.354 24.7678 155.006 23.7358C156.657 22.7038 157.414 21.259 157.414 19.4014C157.414 18.3694 157.138 17.5438 156.519 16.9246C155.9 16.3054 155.212 15.8926 154.386 15.6174C153.561 15.3422 152.46 15.067 151.222 14.8606C149.914 14.5854 148.951 14.3102 148.332 14.1038C147.713 13.8974 147.438 13.4158 147.438 12.8654C147.438 12.2462 147.782 11.7647 148.47 11.3519C149.158 10.9391 150.258 10.7327 151.566 10.7327C152.529 10.7327 153.492 10.8703 154.455 11.0767C155.418 11.2831 156.313 11.6959 157.07 12.1774L158.652 8.80627C157.895 8.32467 156.932 7.91187 155.694 7.63667C154.455 7.36148 153.217 7.22388 151.978 7.22388C149.295 7.22388 147.162 7.77427 145.58 8.80627C143.998 9.83826 143.172 11.2831 143.172 13.1406C143.172 14.2414 143.447 15.067 144.066 15.6862C144.686 16.3054 145.442 16.787 146.268 17.0622C147.094 17.3374 148.194 17.6126 149.502 17.819C150.809 18.0942 151.703 18.3694 152.322 18.5758C152.942 18.851 153.217 19.195 153.217 19.7454C153.217 20.4334 152.873 20.915 152.116 21.3278C151.428 21.6718 150.327 21.8782 148.951 21.8782C147.713 21.8782 146.543 21.7406 145.374 21.4654C144.204 21.1902 143.241 20.7774 142.484 20.227L140.695 23.3918C141.521 23.9422 142.622 24.4238 143.998 24.8366C145.511 25.043 146.956 25.2494 148.538 25.2494Z" fill="#002025"/>
<path fill-rule="evenodd" clip-rule="evenodd" d="M57.9973 22.0159C56.4149 22.0159 55.2453 21.6031 54.3509 20.8463C53.4565 20.0895 53.0437 18.9887 53.0437 17.6127C53.0437 16.3056 53.3189 15.2048 53.8693 14.1728C54.4197 13.1408 55.1765 12.384 56.1397 11.8336C57.1029 11.2832 58.2037 11.008 59.4421 11.008C61.0245 11.008 62.1941 11.4208 63.0885 12.1776C63.9829 12.9344 64.3957 14.0352 64.3957 15.48C64.3957 16.7872 64.1205 17.8879 63.5701 18.9199C63.0197 19.9519 62.2629 20.7087 61.2997 21.2591C60.3365 21.7407 59.2357 22.0159 57.9973 22.0159ZM60.6805 7.43041C58.4101 7.43041 56.4837 8.0496 54.9013 9.288L56.6213 0.0688477H52.2869L47.127 25.3183H51.2549L51.8741 22.5663C52.4245 23.5295 53.3189 24.2175 54.4197 24.7679C55.5205 25.2495 56.8277 25.5247 58.4101 25.5247C60.3365 25.5247 62.1253 25.0431 63.7077 24.1487C65.2901 23.2543 66.5284 22.0159 67.4916 20.4335C68.386 18.8511 68.8676 17.0624 68.8676 15.136C68.8676 13.5536 68.5236 12.1776 67.7668 11.008C67.0788 9.83839 66.0468 8.944 64.8085 8.3248C63.5701 7.70561 62.1941 7.43041 60.6805 7.43041Z" fill="#002025"/>
<path fill-rule="evenodd" clip-rule="evenodd" d="M37.4966 10.4577C38.8038 10.4577 39.9046 10.7329 40.7302 11.4208C41.5558 12.04 42.1062 12.9344 42.2438 14.0352L31.3734 15.8928C31.6486 14.2416 32.3366 12.8656 33.3686 11.9024C34.4694 10.9393 35.8454 10.4577 37.4966 10.4577ZM37.703 7.15527C35.639 7.15527 33.7814 7.56807 32.199 8.46247C30.5478 9.35686 29.3094 10.5953 28.4151 12.1776C27.5207 13.76 27.0391 15.5488 27.0391 17.4752C27.0391 19.0576 27.3831 20.4336 28.1399 21.6032C28.8967 22.7728 29.9286 23.6672 31.3046 24.2864C32.6806 24.9056 34.3318 25.2496 36.1894 25.2496C37.6342 25.2496 39.0102 25.0432 40.3862 24.6304C41.6934 24.2176 42.863 23.5984 43.8262 22.7728L41.9686 19.952C41.3494 20.5712 40.5926 20.984 39.6294 21.2592C38.6662 21.6032 37.703 21.7408 36.6022 21.7408C33.575 21.7408 31.855 20.7088 31.3734 18.6448L46.2342 16.0304C46.2342 15.824 46.303 15.5488 46.303 15.136C46.303 12.5216 45.5462 10.5953 43.9638 9.21926C42.3814 7.84327 40.3174 7.15527 37.703 7.15527Z" fill="#002025"/>
<path fill-rule="evenodd" clip-rule="evenodd" d="M13.0031 19.608C13.1407 21.4655 13.3471 23.3919 13.6223 25.3183H17.1311C18.2319 24.0111 19.2639 22.5663 20.2271 21.0527C21.2591 19.5392 22.1535 17.7504 23.0479 16.168C23.9423 14.5856 24.6991 13.1408 25.4559 11.6272C26.1439 10.0448 26.763 8.60002 27.2446 7.22402H22.7727C22.4287 8.18722 22.0847 9.21921 21.6031 10.3888C21.1215 11.5584 20.5711 12.5904 20.0207 13.76C19.4015 14.9296 18.8511 16.0992 18.1631 17.2C17.5439 18.3008 16.9247 19.3328 16.3055 20.1584C16.1679 19.0576 16.0991 17.888 16.0303 16.7184C15.9615 15.5488 15.8927 14.448 15.8239 13.2784C15.7551 12.1776 15.7551 11.2144 15.6863 10.1136C15.6863 9.08162 15.6863 8.04962 15.6863 7.08643H11.9711C11.5583 8.11842 11.1455 9.15041 10.5951 10.32C10.0447 11.4208 9.49435 12.4528 8.94395 13.5536C8.32475 14.7232 7.70556 15.824 7.01756 16.9248C6.32956 18.0256 5.71037 19.0576 5.02237 20.0896C4.88477 19.1264 4.74717 18.0256 4.67837 16.9248C4.60957 15.824 4.54077 14.6544 4.47197 13.4848C4.40317 12.4528 4.33438 11.4896 4.33438 10.3888C4.33438 9.28801 4.26558 8.25602 4.26558 7.29282H0C0.0687996 9.01282 0.137599 10.7328 0.275198 12.4528C0.412798 14.1728 0.550397 15.6176 0.687996 17.2C0.825595 18.7136 1.03199 20.3648 1.23839 21.7407C1.44479 23.1167 1.65119 24.2863 1.85759 25.3871H5.57277C6.12317 24.6991 6.67356 23.8735 7.29276 22.9791C7.91196 22.0847 8.53115 20.9151 9.15035 19.8832C9.76954 18.92 10.3887 17.888 10.9391 16.856C11.4895 15.824 12.3151 14.792 12.7279 13.8288C12.7967 15.7552 12.8655 17.6816 13.0719 19.5392V19.608H13.0031Z" fill="#002025"/>
<path fill-rule="evenodd" clip-rule="evenodd" d="M78.7749 8.04956C78.9125 7.43036 79.1189 6.74236 79.3253 6.19197C79.6005 5.64157 79.8757 5.22877 80.2885 4.81597C80.6325 4.47197 81.1141 4.12798 81.6645 3.92158C82.2149 3.71518 82.8341 3.57758 83.5909 3.57758C84.3477 3.57758 84.9669 3.64638 85.5173 3.78398C86.0677 3.92158 86.4805 4.05918 86.8245 4.12798L88.4757 0.825595C88.0629 0.619197 87.4437 0.481597 86.6181 0.275198C85.7925 0.0687996 84.8981 0 83.8661 0C82.4213 0 81.2517 0.206399 80.1509 0.550397C79.0501 0.894395 78.1557 1.37599 77.3989 2.06399C76.6421 2.75198 76.0229 3.50878 75.4725 4.47197C74.9221 5.43517 74.5781 6.53596 74.2341 7.77436L70.863 21.5343C70.6566 22.4975 70.3814 23.4607 70.1062 24.2175C69.9686 24.6303 69.831 24.9743 69.6934 25.3183H74.1653C74.4405 24.6991 74.6469 23.9423 74.8533 23.2543C75.1285 22.2223 75.4725 20.9839 75.7477 19.7455L77.4677 12.8655H84.0037L84.8981 9.35675H78.4309L78.7749 8.04956Z" fill="#002025"/>
<path fill-rule="evenodd" clip-rule="evenodd" d="M163.468 2.54565L160.785 15.2048C161.748 14.2416 162.367 13.2096 163.468 12.5216C163.537 11.7648 163.743 9.08162 166.701 8.11842L166.977 6.67363L167.871 2.61445H163.468V2.54565ZM160.097 18.7824C160.028 19.1952 159.959 19.608 159.959 20.0896C159.959 21.6031 160.441 22.7727 161.404 23.5983C162.367 24.4927 163.674 24.9055 165.257 24.9055C167.045 24.9055 168.559 24.5615 169.797 23.8047L169.041 20.5712C168.284 21.0527 167.458 21.2591 166.564 21.2591C165.119 21.2591 164.362 20.5712 164.362 19.1952C164.362 19.0576 164.362 18.7824 164.431 18.4384L165.325 13.9664C165.669 13.1408 166.289 12.04 167.389 11.4896C164.913 11.696 160.922 15.5488 160.097 18.7824Z" fill="#002025"/>
<path fill-rule="evenodd" clip-rule="evenodd" d="M164.981 12.9343C164.086 12.2463 165.394 10.1135 165.394 10.1135L167.733 9.08154L169.246 11.9711L168.558 13.8287C168.558 13.8287 165.875 13.6911 164.981 12.9343Z" fill="#FFFFFA" stroke="#FFFFFA" stroke-miterlimit="10" stroke-linecap="round" stroke-linejoin="round"/>
<path fill-rule="evenodd" clip-rule="evenodd" d="M164.293 11.9711C166.082 11.2143 166.495 11.2831 169.109 11.3519C172.136 11.3519 171.999 7.70557 171.999 7.70557C170.898 8.94396 170.347 8.73756 167.733 8.73756C165.944 8.73756 165.05 9.90715 164.568 10.8703C164.499 11.0767 164.293 11.9711 164.293 11.9711Z" fill="url(#paint0_linear_549_7)"/>
<path fill-rule="evenodd" clip-rule="evenodd" d="M163.605 13.6224C163.605 13.6224 164.225 12.1088 167.665 12.1776C167.665 12.1776 165.738 12.7968 165.188 14.792L163.605 13.6224Z" fill="#002025"/>
<path d="M165.497 14.0072C165.245 14.579 165.131 14.9064 165 15.5V14L165.497 14.0072Z" fill="#002025"/>
<defs>
<linearGradient id="paint0_linear_549_7" x1="164.293" y1="9.83835" x2="171.999" y2="9.83835" gradientUnits="userSpaceOnUse">
<stop stop-color="#30D7F1"/>
<stop offset="0.505" stop-color="#74F857"/>
<stop offset="1" stop-color="#EBE645"/>
</linearGradient>
</defs>
</svg>
