<svg width="32" height="32" viewBox="0 0 32 32" fill="none" xmlns="http://www.w3.org/2000/svg">
<path d="M21.3346 12.9059C21.8945 11.9002 22.3629 10.9993 22.6527 10.3238C24.0533 6.99115 22.6677 3.16324 19.2795 1.60201C15.8913 0.0407797 12.4881 1.66205 10.996 4.7845C8.14072 2.83297 4.33074 3.11808 2.23059 6.16547C0.130439 9.22788 0.789448 13.2211 3.66571 15.3978C4.97174 16.3885 7.55375 17.8447 9.98567 19.1507M22.462 15.638C21.8285 12.2303 18.9312 9.7384 15.2848 10.4139C11.637 11.0895 9.2786 14.3921 9.77099 17.9649C10.1673 20.8322 12.3546 27.5724 13.1982 30.1094C13.3138 30.4547 13.3723 30.6347 13.4864 30.7548C13.5855 30.8599 13.7176 30.935 13.8587 30.965C14.0194 31.01 14.198 30.9651 14.5568 30.9051C17.1778 30.3647 24.1073 28.8784 26.7944 27.7975C30.1375 26.4315 31.8624 22.7386 30.5699 19.2409C29.2773 15.7431 25.7271 14.4821 22.462 15.638Z" fill="#EC1A23"/>
<path d="M21.3346 12.9059C21.8945 11.9002 22.3629 10.9993 22.6527 10.3238C24.0533 6.99115 22.6677 3.16324 19.2795 1.60201C15.8913 0.0407797 12.4881 1.66205 10.996 4.7845C8.14072 2.83297 4.33074 3.11808 2.23059 6.16547C0.130439 9.22788 0.789448 13.2211 3.66571 15.3978C4.97174 16.3885 7.55375 17.8447 9.98567 19.1507M22.462 15.638C21.8285 12.2303 18.9312 9.7384 15.2848 10.4139C11.637 11.0895 9.2786 14.3921 9.77099 17.9649C10.1673 20.8322 12.3546 27.5724 13.1982 30.1094C13.3138 30.4547 13.3723 30.6347 13.4864 30.7548C13.5855 30.8599 13.7176 30.935 13.8587 30.965C14.0194 31.01 14.198 30.9651 14.5568 30.9051C17.1778 30.3647 24.1073 28.8784 26.7944 27.7975C30.1375 26.4315 31.8624 22.7386 30.5699 19.2409C29.2773 15.7431 25.7271 14.4821 22.462 15.638Z" stroke="#FFFFFA" stroke-width="2" stroke-linecap="round" stroke-linejoin="round"/>
</svg>
