<svg width="20" height="17" viewBox="0 0 20 17" fill="none" xmlns="http://www.w3.org/2000/svg">
<path d="M5.85655 8.06801C7.28423 8.51623 8.00574 9.6677 8.00574 11.5147C8.00574 12.8207 7.59126 13.8949 6.76228 14.7527C5.93331 15.6028 4.88174 16.0355 3.60757 16.0355C2.4946 16.0355 1.61189 15.7032 0.967137 15.0386C0.322379 14.374 0 13.5085 0 12.442C0 11.2597 0.491244 9.93045 1.46606 8.46213L6.98488 0H9.77883L5.85655 8.06801ZM10.1166 12.442C10.1166 11.2597 10.6078 9.93045 11.5826 8.46213L17.1014 0H19.8647L15.9808 8.06801C17.4085 8.51623 18.13 9.6677 18.13 11.5147C18.13 12.8207 17.7232 13.8949 16.9019 14.7527C16.0806 15.6028 15.029 16.0355 13.7318 16.0355C12.6188 16.0355 11.7361 15.7032 11.0914 15.0386C10.4389 14.374 10.1166 13.5085 10.1166 12.442Z" fill="#002025"/>
</svg>
