<svg width="45" height="45" viewBox="0 0 45 45" fill="none" xmlns="http://www.w3.org/2000/svg">
<circle cx="22.5" cy="22.5" r="22.5" transform="matrix(1 0 0 -1 0 45)" fill="#F5F4EB"/>
<path d="M30 22V25.7333C30 27.2266 30 27.9733 29.7093 28.5422C29.4533 29.0489 29.0453 29.4578 28.544 29.7067C27.9733 30 27.2267 30 25.7333 30H18.2667C16.7733 30 16.0267 30 15.456 29.7067C14.9547 29.4578 14.5467 29.0489 14.2907 28.5422C14 27.9733 14 27.2266 14 25.7333V22M25.5556 17.5556L22 14M22 14L18.4444 17.5556M22 14V24.6667" stroke="black" stroke-width="2" stroke-linecap="round" stroke-linejoin="round"/>
</svg>
